{
	"asset":{
		"generator":"Khronos glTF Blender I/O v4.4.56",
		"version":"2.0"
	},
	"scene":0,
	"scenes":[
		{
			"name":"Scene",
			"nodes":[
				9
			]
		}
	],
	"nodes":[
		{
			"mesh":0,
			"name":"_wheel_lf__SUB3_gt_34_0",
			"translation":[
				-1.0522937774658203,
				0.9541916847229004,
				0
			]
		},
		{
			"mesh":1,
			"name":"_wheel_lf__SUB3_gt_35_0",
			"translation":[
				-1.0522937774658203,
				0.9541916847229004,
				0
			]
		},
		{
			"children":[
				0,
				1
			],
			"name":"_wheel_lf__SUB3",
			"rotation":[
				-0.70710688829422,
				0,
				0,
				0.7071066498756409
			],
			"scale":[
				100,
				99.99999237060547,
				99.99999237060547
			]
		},
		{
			"mesh":2,
			"name":"AMG_wheels_AMG_silver_0",
			"rotation":[
				-0.70710688829422,
				0,
				0,
				0.7071066498756409
			],
			"scale":[
				104.82353210449219,
				104.82352447509766,
				104.82352447509766
			],
			"translation":[
				-28.177303314208984,
				44.08961486816406,
				51.53245544433594
			]
		},
		{
			"mesh":3,
			"name":"AMG_wheels_AMG_wheels_black_logo_0",
			"rotation":[
				-0.70710688829422,
				0,
				0,
				0.7071066498756409
			],
			"scale":[
				104.82353210449219,
				104.82352447509766,
				104.82352447509766
			],
			"translation":[
				-28.177303314208984,
				44.08961486816406,
				51.53245544433594
			]
		},
		{
			"mesh":4,
			"name":"AMG_wheels_AMG_wheels_color_0",
			"rotation":[
				-0.70710688829422,
				0,
				0,
				0.7071066498756409
			],
			"scale":[
				104.82353210449219,
				104.82352447509766,
				104.82352447509766
			],
			"translation":[
				-28.177303314208984,
				44.08961486816406,
				51.53245544433594
			]
		},
		{
			"mesh":5,
			"name":"AMG_wheels_AMG_wheels_secondcolor_0",
			"rotation":[
				-0.70710688829422,
				0,
				0,
				0.7071066498756409
			],
			"scale":[
				104.82353210449219,
				104.82352447509766,
				104.82352447509766
			],
			"translation":[
				-28.177303314208984,
				44.08961486816406,
				51.53245544433594
			]
		},
		{
			"mesh":6,
			"name":"Object_4.002_Scene_-_Root.002_0",
			"rotation":[
				-0.70710688829422,
				0,
				0,
				0.7071066498756409
			],
			"scale":[
				154.12042236328125,
				124.56696319580078,
				124.56694030761719
			],
			"translation":[
				-22.393285751342773,
				44.08961486816406,
				51.53246307373047
			]
		},
		{
			"children":[
				2,
				3,
				4,
				5,
				6,
				7
			],
			"name":"RootNode"
		},
		{
			"children":[
				8
			],
			"name":"G63 AMG.fbx",
			"rotation":[
				0.70710688829422,
				0,
				0,
				0.7071066498756409
			],
			"scale":[
				0.009999999776482582,
				0.010000000707805157,
				0.010000000707805157
			],
			"translation":[
				0,
				1.1623687744140625,
				0
			]
		}
	],
	"materials":[
		{
			"doubleSided":true,
			"name":"gt_34.001",
			"pbrMetallicRoughness":{
				"baseColorFactor":[
					0.025445299223065376,
					0.025445299223065376,
					0.025445299223065376,
					1
				],
				"metallicFactor":0,
				"roughnessFactor":0.992424488067627
			}
		},
		{
			"alphaMode":"BLEND",
			"doubleSided":true,
			"name":"G900_rocket_urus_27__PAINT_2_0.003",
			"pbrMetallicRoughness":{
				"baseColorFactor":[
					0.035640813410282135,
					0.035640813410282135,
					0.035640813410282135,
					0.979812502861023
				],
				"roughnessFactor":0
			}
		},
		{
			"doubleSided":true,
			"name":"AMG_silver.002",
			"pbrMetallicRoughness":{
				"baseColorFactor":[
					0.8613470196723938,
					0.8613470196723938,
					0.8613470196723938,
					1
				],
				"roughnessFactor":0
			}
		},
		{
			"alphaMode":"BLEND",
			"doubleSided":true,
			"name":"G900_rocket_urus_27__PAINT_2_0.002",
			"pbrMetallicRoughness":{
				"baseColorFactor":[
					0.035640813410282135,
					0.035640813410282135,
					0.035640813410282135,
					0.979812502861023
				],
				"roughnessFactor":0
			}
		},
		{
			"doubleSided":true,
			"name":"AMG_wheels_color.001",
			"pbrMetallicRoughness":{
				"baseColorFactor":[
					0.015876293182373047,
					0.015876293182373047,
					0.015876293182373047,
					1
				],
				"metallicFactor":0.6994307041168213,
				"roughnessFactor":0
			}
		},
		{
			"doubleSided":true,
			"name":"AMG_wheels_secondcolor.001",
			"pbrMetallicRoughness":{
				"baseColorFactor":[
					0.800258994102478,
					0.800258994102478,
					0.800258994102478,
					1
				],
				"metallicFactor":0,
				"roughnessFactor":0
			}
		},
		{
			"doubleSided":true,
			"name":"Scene_-_Root.001",
			"pbrMetallicRoughness":{
				"baseColorFactor":[
					0,
					0,
					0,
					1
				],
				"metallicFactor":0
			}
		}
	],
	"meshes":[
		{
			"name":"_wheel_lf__SUB3_gt_34_0.001",
			"primitives":[
				{
					"attributes":{
						"POSITION":0,
						"NORMAL":1,
						"TEXCOORD_0":2,
						"TEXCOORD_1":3,
						"TEXCOORD_2":4,
						"TEXCOORD_3":5,
						"TANGENT":6
					},
					"indices":7,
					"material":0
				}
			]
		},
		{
			"name":"_wheel_lf__SUB3_gt_35_0.001",
			"primitives":[
				{
					"attributes":{
						"POSITION":8,
						"NORMAL":9,
						"TEXCOORD_0":10,
						"TEXCOORD_1":11,
						"TEXCOORD_2":12,
						"TEXCOORD_3":13,
						"TANGENT":14
					},
					"indices":15,
					"material":1
				}
			]
		},
		{
			"name":"AMG_wheels_AMG_silver_0.001",
			"primitives":[
				{
					"attributes":{
						"POSITION":16,
						"NORMAL":17,
						"TEXCOORD_0":18,
						"TEXCOORD_1":19,
						"TEXCOORD_2":20,
						"TEXCOORD_3":21,
						"TEXCOORD_4":22,
						"TEXCOORD_5":23,
						"TANGENT":24,
						"COLOR_0":25
					},
					"indices":26,
					"material":2
				}
			]
		},
		{
			"name":"AMG_wheels_AMG_wheels_black_logo_0.001",
			"primitives":[
				{
					"attributes":{
						"POSITION":27,
						"NORMAL":28,
						"TEXCOORD_0":29,
						"TEXCOORD_1":30,
						"TEXCOORD_2":31,
						"TEXCOORD_3":32,
						"TEXCOORD_4":33,
						"TEXCOORD_5":34,
						"TANGENT":35,
						"COLOR_0":36
					},
					"indices":37,
					"material":3
				}
			]
		},
		{
			"name":"AMG_wheels_AMG_wheels_color_0.001",
			"primitives":[
				{
					"attributes":{
						"POSITION":38,
						"NORMAL":39,
						"TEXCOORD_0":40,
						"TEXCOORD_1":41,
						"TEXCOORD_2":42,
						"TEXCOORD_3":43,
						"TEXCOORD_4":44,
						"TEXCOORD_5":45,
						"TANGENT":46,
						"COLOR_0":47
					},
					"indices":48,
					"material":4
				}
			]
		},
		{
			"name":"AMG_wheels_AMG_wheels_secondcolor_0.001",
			"primitives":[
				{
					"attributes":{
						"POSITION":49,
						"NORMAL":50,
						"TEXCOORD_0":51,
						"TEXCOORD_1":52,
						"TEXCOORD_2":53,
						"TEXCOORD_3":54,
						"TEXCOORD_4":55,
						"TEXCOORD_5":56,
						"TANGENT":57,
						"COLOR_0":58
					},
					"indices":59,
					"material":5
				}
			]
		},
		{
			"name":"Object_4.002_Scene_-_Root.002_0.001",
			"primitives":[
				{
					"attributes":{
						"POSITION":60,
						"NORMAL":61,
						"TEXCOORD_0":62,
						"TANGENT":63
					},
					"indices":64,
					"material":6
				}
			]
		}
	],
	"accessors":[
		{
			"bufferView":0,
			"componentType":5126,
			"count":5282,
			"max":[
				0.8841319680213928,
				-1.33855402469635,
				0.5696144104003906
			],
			"min":[
				0.8458552360534668,
				-1.5976120233535767,
				0.30788731575012207
			],
			"type":"VEC3"
		},
		{
			"bufferView":1,
			"componentType":5126,
			"count":5282,
			"type":"VEC3"
		},
		{
			"bufferView":2,
			"componentType":5126,
			"count":5282,
			"type":"VEC2"
		},
		{
			"bufferView":3,
			"componentType":5126,
			"count":5282,
			"type":"VEC2"
		},
		{
			"bufferView":4,
			"componentType":5126,
			"count":5282,
			"type":"VEC2"
		},
		{
			"bufferView":5,
			"componentType":5126,
			"count":5282,
			"type":"VEC2"
		},
		{
			"bufferView":6,
			"componentType":5126,
			"count":5282,
			"type":"VEC4"
		},
		{
			"bufferView":7,
			"componentType":5123,
			"count":11280,
			"type":"SCALAR"
		},
		{
			"bufferView":8,
			"componentType":5126,
			"count":1458,
			"max":[
				0.8547562956809998,
				-1.235733985900879,
				0.6704096794128418
			],
			"min":[
				0.788367509841919,
				-1.700430989265442,
				0.20528170466423035
			],
			"type":"VEC3"
		},
		{
			"bufferView":9,
			"componentType":5126,
			"count":1458,
			"type":"VEC3"
		},
		{
			"bufferView":10,
			"componentType":5126,
			"count":1458,
			"type":"VEC2"
		},
		{
			"bufferView":11,
			"componentType":5126,
			"count":1458,
			"type":"VEC2"
		},
		{
			"bufferView":12,
			"componentType":5126,
			"count":1458,
			"type":"VEC2"
		},
		{
			"bufferView":13,
			"componentType":5126,
			"count":1458,
			"type":"VEC2"
		},
		{
			"bufferView":14,
			"componentType":5126,
			"count":1458,
			"type":"VEC4"
		},
		{
			"bufferView":15,
			"componentType":5123,
			"count":3954,
			"type":"SCALAR"
		},
		{
			"bufferView":16,
			"componentType":5126,
			"count":179,
			"max":[
				0.12898540496826172,
				0.034842249006032944,
				0.034711480140686035
			],
			"min":[
				0.12537150084972382,
				-0.034848690032958984,
				-0.035144150257110596
			],
			"type":"VEC3"
		},
		{
			"bufferView":17,
			"componentType":5126,
			"count":179,
			"type":"VEC3"
		},
		{
			"bufferView":18,
			"componentType":5126,
			"count":179,
			"type":"VEC2"
		},
		{
			"bufferView":19,
			"componentType":5126,
			"count":179,
			"type":"VEC2"
		},
		{
			"bufferView":20,
			"componentType":5126,
			"count":179,
			"type":"VEC2"
		},
		{
			"bufferView":21,
			"componentType":5126,
			"count":179,
			"type":"VEC2"
		},
		{
			"bufferView":22,
			"componentType":5126,
			"count":179,
			"type":"VEC2"
		},
		{
			"bufferView":23,
			"componentType":5126,
			"count":179,
			"type":"VEC2"
		},
		{
			"bufferView":24,
			"componentType":5126,
			"count":179,
			"type":"VEC4"
		},
		{
			"bufferView":25,
			"componentType":5126,
			"count":179,
			"type":"VEC3"
		},
		{
			"bufferView":26,
			"componentType":5123,
			"count":804,
			"type":"SCALAR"
		},
		{
			"bufferView":27,
			"componentType":5126,
			"count":930,
			"max":[
				0.15062260627746582,
				-0.10083290189504623,
				0.2857784926891327
			],
			"min":[
				0.14550499618053436,
				-0.15755340456962585,
				0.2525118887424469
			],
			"type":"VEC3"
		},
		{
			"bufferView":28,
			"componentType":5126,
			"count":930,
			"type":"VEC3"
		},
		{
			"bufferView":29,
			"componentType":5126,
			"count":930,
			"type":"VEC2"
		},
		{
			"bufferView":30,
			"componentType":5126,
			"count":930,
			"type":"VEC2"
		},
		{
			"bufferView":31,
			"componentType":5126,
			"count":930,
			"type":"VEC2"
		},
		{
			"bufferView":32,
			"componentType":5126,
			"count":930,
			"type":"VEC2"
		},
		{
			"bufferView":33,
			"componentType":5126,
			"count":930,
			"type":"VEC2"
		},
		{
			"bufferView":34,
			"componentType":5126,
			"count":930,
			"type":"VEC2"
		},
		{
			"bufferView":35,
			"componentType":5126,
			"count":930,
			"type":"VEC4"
		},
		{
			"bufferView":36,
			"componentType":5123,
			"count":930,
			"normalized":true,
			"type":"VEC4"
		},
		{
			"bufferView":37,
			"componentType":5123,
			"count":1620,
			"type":"SCALAR"
		},
		{
			"bufferView":38,
			"componentType":5126,
			"count":5367,
			"max":[
				0.15156450867652893,
				0.3214974105358124,
				0.32153111696243286
			],
			"min":[
				-0.1469305008649826,
				-0.32150429487228394,
				-0.32147061824798584
			],
			"type":"VEC3"
		},
		{
			"bufferView":39,
			"componentType":5126,
			"count":5367,
			"type":"VEC3"
		},
		{
			"bufferView":40,
			"componentType":5126,
			"count":5367,
			"type":"VEC2"
		},
		{
			"bufferView":41,
			"componentType":5126,
			"count":5367,
			"type":"VEC2"
		},
		{
			"bufferView":42,
			"componentType":5126,
			"count":5367,
			"type":"VEC2"
		},
		{
			"bufferView":43,
			"componentType":5126,
			"count":5367,
			"type":"VEC2"
		},
		{
			"bufferView":44,
			"componentType":5126,
			"count":5367,
			"type":"VEC2"
		},
		{
			"bufferView":45,
			"componentType":5126,
			"count":5367,
			"type":"VEC2"
		},
		{
			"bufferView":46,
			"componentType":5126,
			"count":5367,
			"type":"VEC4"
		},
		{
			"bufferView":47,
			"componentType":5126,
			"count":5367,
			"type":"VEC3"
		},
		{
			"bufferView":48,
			"componentType":5123,
			"count":16746,
			"type":"SCALAR"
		},
		{
			"bufferView":49,
			"componentType":5126,
			"count":583,
			"max":[
				0.15156450867652893,
				0.3191964030265808,
				0.31922999024391174
			],
			"min":[
				0.1434348076581955,
				-0.31920310854911804,
				-0.3191694915294647
			],
			"type":"VEC3"
		},
		{
			"bufferView":50,
			"componentType":5126,
			"count":583,
			"type":"VEC3"
		},
		{
			"bufferView":51,
			"componentType":5126,
			"count":583,
			"type":"VEC2"
		},
		{
			"bufferView":52,
			"componentType":5126,
			"count":583,
			"type":"VEC2"
		},
		{
			"bufferView":53,
			"componentType":5126,
			"count":583,
			"type":"VEC2"
		},
		{
			"bufferView":54,
			"componentType":5126,
			"count":583,
			"type":"VEC2"
		},
		{
			"bufferView":55,
			"componentType":5126,
			"count":583,
			"type":"VEC2"
		},
		{
			"bufferView":56,
			"componentType":5126,
			"count":583,
			"type":"VEC2"
		},
		{
			"bufferView":57,
			"componentType":5126,
			"count":583,
			"type":"VEC4"
		},
		{
			"bufferView":58,
			"componentType":5126,
			"count":583,
			"type":"VEC3"
		},
		{
			"bufferView":59,
			"componentType":5123,
			"count":720,
			"type":"SCALAR"
		},
		{
			"bufferView":60,
			"componentType":5126,
			"count":6531,
			"max":[
				0.06481698900461197,
				0.3335965871810913,
				0.33402594923973083
			],
			"min":[
				-0.1378166824579239,
				-0.3344472646713257,
				-0.3339846432209015
			],
			"type":"VEC3"
		},
		{
			"bufferView":61,
			"componentType":5126,
			"count":6531,
			"type":"VEC3"
		},
		{
			"bufferView":62,
			"componentType":5126,
			"count":6531,
			"type":"VEC2"
		},
		{
			"bufferView":63,
			"componentType":5126,
			"count":6531,
			"type":"VEC4"
		},
		{
			"bufferView":64,
			"componentType":5123,
			"count":37311,
			"type":"SCALAR"
		}
	],
	"bufferViews":[
		{
			"buffer":0,
			"byteLength":63384,
			"byteOffset":0,
			"target":34962
		},
		{
			"buffer":0,
			"byteLength":63384,
			"byteOffset":63384,
			"target":34962
		},
		{
			"buffer":0,
			"byteLength":42256,
			"byteOffset":126768,
			"target":34962
		},
		{
			"buffer":0,
			"byteLength":42256,
			"byteOffset":169024,
			"target":34962
		},
		{
			"buffer":0,
			"byteLength":42256,
			"byteOffset":211280,
			"target":34962
		},
		{
			"buffer":0,
			"byteLength":42256,
			"byteOffset":253536,
			"target":34962
		},
		{
			"buffer":0,
			"byteLength":84512,
			"byteOffset":295792,
			"target":34962
		},
		{
			"buffer":0,
			"byteLength":22560,
			"byteOffset":380304,
			"target":34963
		},
		{
			"buffer":0,
			"byteLength":17496,
			"byteOffset":402864,
			"target":34962
		},
		{
			"buffer":0,
			"byteLength":17496,
			"byteOffset":420360,
			"target":34962
		},
		{
			"buffer":0,
			"byteLength":11664,
			"byteOffset":437856,
			"target":34962
		},
		{
			"buffer":0,
			"byteLength":11664,
			"byteOffset":449520,
			"target":34962
		},
		{
			"buffer":0,
			"byteLength":11664,
			"byteOffset":461184,
			"target":34962
		},
		{
			"buffer":0,
			"byteLength":11664,
			"byteOffset":472848,
			"target":34962
		},
		{
			"buffer":0,
			"byteLength":23328,
			"byteOffset":484512,
			"target":34962
		},
		{
			"buffer":0,
			"byteLength":7908,
			"byteOffset":507840,
			"target":34963
		},
		{
			"buffer":0,
			"byteLength":2148,
			"byteOffset":515748,
			"target":34962
		},
		{
			"buffer":0,
			"byteLength":2148,
			"byteOffset":517896,
			"target":34962
		},
		{
			"buffer":0,
			"byteLength":1432,
			"byteOffset":520044,
			"target":34962
		},
		{
			"buffer":0,
			"byteLength":1432,
			"byteOffset":521476,
			"target":34962
		},
		{
			"buffer":0,
			"byteLength":1432,
			"byteOffset":522908,
			"target":34962
		},
		{
			"buffer":0,
			"byteLength":1432,
			"byteOffset":524340,
			"target":34962
		},
		{
			"buffer":0,
			"byteLength":1432,
			"byteOffset":525772,
			"target":34962
		},
		{
			"buffer":0,
			"byteLength":1432,
			"byteOffset":527204,
			"target":34962
		},
		{
			"buffer":0,
			"byteLength":2864,
			"byteOffset":528636,
			"target":34962
		},
		{
			"buffer":0,
			"byteLength":2148,
			"byteOffset":531500,
			"target":34962
		},
		{
			"buffer":0,
			"byteLength":1608,
			"byteOffset":533648,
			"target":34963
		},
		{
			"buffer":0,
			"byteLength":11160,
			"byteOffset":535256,
			"target":34962
		},
		{
			"buffer":0,
			"byteLength":11160,
			"byteOffset":546416,
			"target":34962
		},
		{
			"buffer":0,
			"byteLength":7440,
			"byteOffset":557576,
			"target":34962
		},
		{
			"buffer":0,
			"byteLength":7440,
			"byteOffset":565016,
			"target":34962
		},
		{
			"buffer":0,
			"byteLength":7440,
			"byteOffset":572456,
			"target":34962
		},
		{
			"buffer":0,
			"byteLength":7440,
			"byteOffset":579896,
			"target":34962
		},
		{
			"buffer":0,
			"byteLength":7440,
			"byteOffset":587336,
			"target":34962
		},
		{
			"buffer":0,
			"byteLength":7440,
			"byteOffset":594776,
			"target":34962
		},
		{
			"buffer":0,
			"byteLength":14880,
			"byteOffset":602216,
			"target":34962
		},
		{
			"buffer":0,
			"byteLength":7440,
			"byteOffset":617096,
			"target":34962
		},
		{
			"buffer":0,
			"byteLength":3240,
			"byteOffset":624536,
			"target":34963
		},
		{
			"buffer":0,
			"byteLength":64404,
			"byteOffset":627776,
			"target":34962
		},
		{
			"buffer":0,
			"byteLength":64404,
			"byteOffset":692180,
			"target":34962
		},
		{
			"buffer":0,
			"byteLength":42936,
			"byteOffset":756584,
			"target":34962
		},
		{
			"buffer":0,
			"byteLength":42936,
			"byteOffset":799520,
			"target":34962
		},
		{
			"buffer":0,
			"byteLength":42936,
			"byteOffset":842456,
			"target":34962
		},
		{
			"buffer":0,
			"byteLength":42936,
			"byteOffset":885392,
			"target":34962
		},
		{
			"buffer":0,
			"byteLength":42936,
			"byteOffset":928328,
			"target":34962
		},
		{
			"buffer":0,
			"byteLength":42936,
			"byteOffset":971264,
			"target":34962
		},
		{
			"buffer":0,
			"byteLength":85872,
			"byteOffset":1014200,
			"target":34962
		},
		{
			"buffer":0,
			"byteLength":64404,
			"byteOffset":1100072,
			"target":34962
		},
		{
			"buffer":0,
			"byteLength":33492,
			"byteOffset":1164476,
			"target":34963
		},
		{
			"buffer":0,
			"byteLength":6996,
			"byteOffset":1197968,
			"target":34962
		},
		{
			"buffer":0,
			"byteLength":6996,
			"byteOffset":1204964,
			"target":34962
		},
		{
			"buffer":0,
			"byteLength":4664,
			"byteOffset":1211960,
			"target":34962
		},
		{
			"buffer":0,
			"byteLength":4664,
			"byteOffset":1216624,
			"target":34962
		},
		{
			"buffer":0,
			"byteLength":4664,
			"byteOffset":1221288,
			"target":34962
		},
		{
			"buffer":0,
			"byteLength":4664,
			"byteOffset":1225952,
			"target":34962
		},
		{
			"buffer":0,
			"byteLength":4664,
			"byteOffset":1230616,
			"target":34962
		},
		{
			"buffer":0,
			"byteLength":4664,
			"byteOffset":1235280,
			"target":34962
		},
		{
			"buffer":0,
			"byteLength":9328,
			"byteOffset":1239944,
			"target":34962
		},
		{
			"buffer":0,
			"byteLength":6996,
			"byteOffset":1249272,
			"target":34962
		},
		{
			"buffer":0,
			"byteLength":1440,
			"byteOffset":1256268,
			"target":34963
		},
		{
			"buffer":0,
			"byteLength":78372,
			"byteOffset":1257708,
			"target":34962
		},
		{
			"buffer":0,
			"byteLength":78372,
			"byteOffset":1336080,
			"target":34962
		},
		{
			"buffer":0,
			"byteLength":52248,
			"byteOffset":1414452,
			"target":34962
		},
		{
			"buffer":0,
			"byteLength":104496,
			"byteOffset":1466700,
			"target":34962
		},
		{
			"buffer":0,
			"byteLength":74622,
			"byteOffset":1571196,
			"target":34963
		}
	],
	"buffers":[
		{
			"byteLength":1645820,
			"uri":"wheel.bin"
		}
	]
}
